<?xml version="1.0" standalone="no"?><!DOCTYPE svg PUBLIC "-//W3C//DTD SVG 1.1//EN" "http://www.w3.org/Graphics/SVG/1.1/DTD/svg11.dtd"><svg t="1549521549237" class="icon" style="" viewBox="0 0 1024 1024" version="1.1" xmlns="http://www.w3.org/2000/svg" p-id="6215" xmlns:xlink="http://www.w3.org/1999/xlink" width="45" height="45"><defs><style type="text/css"></style></defs><path d="M511.996418 65.60416c-246.534929 0-446.391746 199.862957-446.391746 446.394816 0 246.540046 199.856817 446.397886 446.391746 446.397886 246.541069 0 446.396863-199.858864 446.396863-446.397886C958.393281 265.466094 758.537488 65.60416 511.996418 65.60416L511.996418 65.60416zM716.349643 657.94393c16.102746 16.144702 16.102746 42.269709 0 58.376549-16.140609 16.144702-42.273802 16.144702-58.408271 0L511.996418 570.389852 366.015649 716.320479c-16.095583 16.144702-42.227754 16.144702-58.365292 0-16.095583-16.10684-16.095583-42.231847 0-58.376549l145.970536-145.933697L307.650357 366.04072c-16.095583-16.111956-16.095583-42.243103 0-58.376549 16.132422-16.109909 42.265616-16.109909 58.365292 0L511.996418 453.634708l145.944953-145.970536c16.135492-16.109909 42.267663-16.109909 58.408271 0 16.102746 16.133446 16.102746 42.264593 0 58.376549L570.379107 512.010233 716.349643 657.94393 716.349643 657.94393zM716.349643 657.94393" p-id="6216"></path></svg>