<?xml version="1.0" standalone="no"?><!DOCTYPE svg PUBLIC "-//W3C//DTD SVG 1.1//EN" "http://www.w3.org/Graphics/SVG/1.1/DTD/svg11.dtd"><svg t="1549714189003" class="icon" style="" viewBox="0 0 1024 1024" version="1.1" xmlns="http://www.w3.org/2000/svg" p-id="37262" xmlns:xlink="http://www.w3.org/1999/xlink" width="45" height="45"><defs><style type="text/css"></style></defs><path d="M878.673635 904.094096H143.547859c-39.422871 0-58.357106-20.775162-67.298756-38.20309-9.018398-17.577331-13.039991-40.619116-13.039991-74.712609v-40.202631h40.932248v40.202631c0 66.567092 17.84646 71.983451 39.406499 71.983451h735.125776c21.527292 0 39.346123-5.41636 39.346124-71.983451v-40.202631h40.932248v40.202631c0 22.955828-1.478677 52.190663-13.011339 74.701353-8.930393 17.434068-27.849278 38.214347-67.267033 38.214346zM958.952007 257.737062h-40.932248v-37.202297c0-66.577325-17.818831-71.993684-39.346124-71.993684H143.547859c-21.560038 0-39.406498 5.417383-39.406499 71.993684v37.202297h-40.932248v-37.202297c0-34.097586 4.021593-57.142441 13.038968-74.721818 8.94165-17.428951 27.874861-38.205137 67.299779-38.205137h735.125776c39.418778 0 58.337663 20.782326 67.268057 38.216393 11.531638 22.512736 13.010315 51.751664 13.010315 74.710562v37.202297z" fill="#231815" p-id="37263"></path><path d="M299.672662 665.459091h-40.251749V408.964322c-9.692756 9.245572-22.401196 18.48705-38.127366 27.729552-15.730263 9.245572-29.853935 16.178471-42.377156 20.796651v-38.910194c22.509666-10.584056 42.187845-23.403013 59.036581-38.463011 16.844643-15.055904 28.770254-29.664623 35.779901-43.830251h25.940812V665.459091zM614.309642 626.771977v38.687114H397.618415c-0.299829-9.689686 1.264806-19.007913 4.695952-27.952632 5.513574-14.759145 14.346753-29.294187 26.499537-43.606147 12.149714-14.310937 29.703509-30.859845 52.66343-49.644677 35.629475-29.217439 59.70787-52.362578 72.230068-69.435419 12.522198-17.068747 18.783809-33.207309 18.783809-48.414663 0-15.950274-5.701862-29.405727-17.107633-40.36329-11.404748-10.957563-26.275433-16.436344-44.61308-16.436344-19.381419 0-34.885532 5.814426-46.51336 17.442254-11.628852 11.627828-17.520025 27.729551-17.666359 48.3021l-41.370223-4.247745c2.830465-30.860868 13.490246-54.375421 31.978319-70.553892 18.48398-16.174378 43.306318-24.26259 74.467016-24.26259 31.454386 0 56.353472 8.721639 74.690096 26.163893 18.337647 17.442254 27.505447 39.060621 27.505447 64.849984 0 13.120832-2.683109 26.01756-8.05035 38.687114-5.366218 12.673647-14.276145 26.01756-26.722618 40.028668-12.449543 14.014178-33.134655 33.246195-62.055334 57.695027-24.152073 20.275789-39.658232 34.029024-46.514384 41.257659-6.859221 7.232728-12.523221 14.500249-16.995069 21.803586h160.785963zM657.692708 578.917062l40.25175-5.366217c4.619204 22.809495 12.484336 39.245839 23.592324 49.309032 11.104919 10.063193 24.633027 15.09479 40.587394 15.09479 18.931165 0 34.920324-6.558369 47.967478-19.678178 13.043061-13.116739 19.566638-29.367865 19.566638-48.750308 0-18.48398-6.037507-33.729196-18.113543-45.73053-12.075013-11.999288-27.431769-18.002003-46.066175-18.002003-7.604188 0-17.072841 1.49198-28.400841 4.472871l4.472872-35.332716c2.683109 0.300852 4.842285 0.448208 6.484691 0.448208 17.142425 0 32.57286-4.472871 46.290279-13.417591 13.713326-8.944719 20.572548-22.732747 20.572548-41.370223 0-14.759145-4.996804-26.981515-14.983249-36.674271-9.989515-9.688663-22.886243-14.535041-38.687114-14.535041-15.653515 0-28.700669 4.920056-39.133276 14.759145-10.4367 9.839089-17.146519 24.598234-20.126386 44.277436l-40.25175-7.15598c4.920056-26.981515 16.099676-47.889707 33.542954-62.7256 17.442254-14.832823 39.133276-22.25077 65.074088-22.25077 17.889439 0 34.360576 3.840468 49.420573 11.516288 15.055904 7.679913 26.573215 18.152429 34.549887 31.419593 7.973602 13.270235 11.963473 27.358091 11.963473 42.264593 0 14.165628-3.801583 27.058262-11.404748 38.687114-7.604188 11.627828-18.86158 20.8734-33.767058 27.729552 19.378349 4.472871 34.437323 13.752212 45.171806 27.841091s16.1007 31.719422 16.100699 52.887535c0 28.623921-10.4367 52.886511-31.307029 72.788793-20.8734 19.902282-47.26242 29.853935-79.162968 29.853935-28.773324 0-52.662407-8.571213-71.670319-25.716708-19.005866-17.146519-29.851888-39.361473-32.534998-66.64384z" fill="#231815" p-id="37264"></path></svg>