<?xml version="1.0" standalone="no"?><!DOCTYPE svg PUBLIC "-//W3C//DTD SVG 1.1//EN" "http://www.w3.org/Graphics/SVG/1.1/DTD/svg11.dtd"><svg t="1549092142800" class="icon" style="" viewBox="0 0 1024 1024" version="1.1" xmlns="http://www.w3.org/2000/svg" p-id="22506" xmlns:xlink="http://www.w3.org/1999/xlink" width="45" height="45"><defs><style type="text/css"></style></defs><path d="M1016.603393 503.485302l-11.868973-14.965228c-2.064169-2.580212-51.432219-64.677306-136.235176-126.946414-113.357299-83.254829-236.86343-127.290442-357.101293-127.290441s-243.743995 44.035612-357.101294 127.290441c-84.630942 62.269108-134.171006 124.366202-136.235175 126.946414l-11.868974 14.965228c-6.364522 7.912649-6.364522 19.26558 0 27.178229l11.868974 14.965228c2.064169 2.580212 51.604233 64.677306 136.235175 126.946413 113.357299 83.254829 236.86343 127.290442 357.101294 127.290442s243.743995-44.035612 357.101293-127.290442c84.630942-62.269108 134.171006-124.366202 136.235176-126.946413l11.868973-14.965228c6.364522-7.912649 6.364522-19.093566 0-27.178229zM511.569965 734.500252C391.504116 734.500252 294.144129 637.140265 294.144129 517.074416c0-120.065849 97.359987-217.425836 217.425836-217.425835 120.065849 0 217.425836 97.359987 217.425835 217.425835-0.172014 120.065849-97.359987 217.425836-217.425835 217.425836z" p-id="22507"></path><path d="M511.569965 368.454225c-82.222745 0-148.792206 66.569461-148.792206 148.792205s66.569461 148.792206 148.792206 148.792206 148.792206-66.569461 148.792205-148.792206c-0.172014-82.222745-66.741475-148.792206-148.792205-148.792205z" p-id="22508"></path></svg>