<?xml version="1.0" standalone="no"?><!DOCTYPE svg PUBLIC "-//W3C//DTD SVG 1.1//EN" "http://www.w3.org/Graphics/SVG/1.1/DTD/svg11.dtd"><svg t="1549893069310" class="icon" style="" viewBox="0 0 1024 1024" version="1.1" xmlns="http://www.w3.org/2000/svg" p-id="31079" xmlns:xlink="http://www.w3.org/1999/xlink" width="45" height="45"><defs><style type="text/css"></style></defs><path d="M512.465455 990.766545c-264.750545 0-479.418182-214.621091-479.418182-479.418181 0-264.843636 214.667636-479.418182 479.418182-479.418182 264.843636 0 479.418182 214.574545 479.418181 479.418182 0 264.797091-214.574545 479.418182-479.418181 479.418181z m0.09309-882.082909c-222.021818 0-402.618182 180.596364-402.618181 402.618182 0 222.021818 180.596364 402.618182 402.618181 402.618182 222.021818 0 402.618182-180.596364 402.618182-402.618182 0-222.021818-180.596364-402.618182-402.618182-402.618182z m-0.046545 699.298909h-5.445818c-177.664 0-252.276364-164.072727-255.394909-170.914909-6.656-14.661818-2.001455-33.186909 17.454545-42.775272 20.247273-9.774545 41.192727 2.606545 51.106909 16.896 4.654545 6.702545 84.386909 128.698182 186.833455 128.372363h2.746182c111.243636-2.792727 196.794182-124.509091 201.402181-130.792727 10.705455-14.429091 27.415273-19.409455 42.91491-12.008727 15.499636 7.354182 22.341818 20.852364 17.361454 40.168727-1.722182 6.795636-73.681455 168.866909-258.978909 171.054545z" p-id="31080"></path></svg>