<?xml version="1.0" standalone="no"?><!DOCTYPE svg PUBLIC "-//W3C//DTD SVG 1.1//EN" "http://www.w3.org/Graphics/SVG/1.1/DTD/svg11.dtd"><svg t="1549896335613" class="icon" style="" viewBox="0 0 1024 1024" version="1.1" xmlns="http://www.w3.org/2000/svg" p-id="38629" xmlns:xlink="http://www.w3.org/1999/xlink" width="45" height="45"><defs><style type="text/css"></style></defs><path d="M816.256 149.888a32 32 0 0 0-30.4-21.888H238.144a32 32 0 0 0-30.4 21.888L128 389.248V416a96 96 0 0 0 192 0h64a96 96 0 0 0 96 96h64a96 96 0 0 0 96-96h64a96 96 0 0 0 192 0v-26.816l-79.744-239.36zM224 576A160 160 0 0 1 64 416v-32l1.664-10.112 81.408-244.224A96 96 0 0 1 238.08 64h547.712a96 96 0 0 1 91.072 65.664l81.408 244.224L960 384v32a160 160 0 0 1-288 96c-29.184 38.848-75.648 64-128 64h-64a159.744 159.744 0 0 1-128-64c-29.184 38.848-75.648 64-128 64z m-96 96a32 32 0 1 1 64 0v192a32 32 0 0 0 32 32h576a32 32 0 0 0 32-32V672a32 32 0 1 1 64 0v192a96 96 0 0 1-96 96H224a96 96 0 0 1-96-96V672z m160-352a32 32 0 0 1 0-64h448a32 32 0 1 1 0 64H288z" p-id="38630"></path></svg>