<?xml version="1.0" standalone="no"?><!DOCTYPE svg PUBLIC "-//W3C//DTD SVG 1.1//EN" "http://www.w3.org/Graphics/SVG/1.1/DTD/svg11.dtd"><svg t="1549896910890" class="icon" style="" viewBox="0 0 1024 1024" version="1.1" xmlns="http://www.w3.org/2000/svg" p-id="96906" xmlns:xlink="http://www.w3.org/1999/xlink" width="45" height="45"><defs><style type="text/css"></style></defs><path d="M518.25664 993.28h-0.4096c-49.03936 0-99.67616-6.47168-150.528-19.22048-52.61312-13.19936-92.57984-29.9008-116.84864-41.60512-58.7776-28.2112-111.47264-67.82976-152.35072-114.55488-41.41056-47.31904-71.24992-102.56384-86.30272-159.744a353.46432 353.46432 0 0 1-5.9904-154.5216c9.6256-52.8384 31.1296-104.20224 63.88736-152.73984l1.3312-5.07904c39.3216-150.08768 79.98464-305.27488 182.67136-324.1472l1.20832-0.21504 1.2288-0.12288A182.55872 182.55872 0 0 1 273.69472 20.48c99.7376 0 169.97376 81.6128 194.48832 114.93376h81.408l2.048-2.4576c27.66848-33.44384 92.4672-111.75936 183.296-111.75936h1.47456c107.37664 0 171.61216 185.3952 210.5856 324.84352 1.3312 4.78208 2.70336 9.6768 3.62496 12.82048 64.12288 94.60736 86.3744 189.41952 66.12992 281.87648-35.1232 160.44032-185.92768 255.08864-200.83712 264.09984C803.4304 913.37728 689.152 988.3136 518.67648 993.28l-0.41984 0.01024z" p-id="96907"></path></svg>