<?xml version="1.0" standalone="no"?><!DOCTYPE svg PUBLIC "-//W3C//DTD SVG 1.1//EN" "http://www.w3.org/Graphics/SVG/1.1/DTD/svg11.dtd"><svg t="1549896744692" class="icon" style="" viewBox="0 0 1024 1024" version="1.1" xmlns="http://www.w3.org/2000/svg" p-id="85483" xmlns:xlink="http://www.w3.org/1999/xlink" width="45" height="45"><defs><style type="text/css"></style></defs><path d="M511.998977 1023.104607c-282.274922 0-511.104607-228.829685-511.104607-511.104607 0-282.272875 228.829685-511.10256 511.104607-511.10256 282.275945 0 511.10563 228.829685 511.10563 511.10256C1023.104607 794.273898 794.274922 1023.104607 511.998977 1023.104607zM607.940073 290.51663c-34.525328 0-68.364017 11.274788-95.948259 31.865755-27.584242-20.590967-61.420885-31.865755-95.949282-31.865755-88.00024 0-159.595858 71.077825-159.595858 158.455895 0 177.468924 226.01764 292.091498 235.668441 296.900014 6.15007 3.028986 13.021571 4.637624 19.8767 4.637624 6.848988 0 13.739932-1.608637 19.97903-4.679579 9.616008-4.797259 235.579413-119.491465 235.579413-296.858058C767.55128 361.593432 695.948499 290.51663 607.940073 290.51663zM511.991814 689.112814c-32.003901-17.272385-195.415668-111.766526-195.415668-240.140289 0-54.643528 44.621267-99.101065 99.466386-99.101065 27.979238 0 54.801117 11.838629 73.599252 32.458249l22.351054 24.548092 22.349007-24.548092c18.798135-20.61962 45.61899-32.458249 73.599252-32.458249 54.853305 0 99.481735 44.457538 99.481735 99.101065C707.421808 577.389266 544.000831 671.854754 511.991814 689.112814z" p-id="85484"></path></svg>