<?xml version="1.0" standalone="no"?><!DOCTYPE svg PUBLIC "-//W3C//DTD SVG 1.1//EN" "http://www.w3.org/Graphics/SVG/1.1/DTD/svg11.dtd"><svg t="1549896439963" class="icon" style="" viewBox="0 0 1028 1024" version="1.1" xmlns="http://www.w3.org/2000/svg" p-id="40734" xmlns:xlink="http://www.w3.org/1999/xlink" width="45.17578125" height="45"><defs><style type="text/css"></style></defs><path d="M354.1333333333333 782.778q19.456 0 36.864 7.167999999999999t30.208 19.968 20.48 30.208 7.679999999999999 36.864-7.679999999999999 36.864-20.48 30.208-30.208 20.48-36.864 7.679999999999999q-20.48 0-37.888-7.679999999999999t-30.208-20.48-20.48-30.208-7.679999999999999-36.864 7.679999999999999-36.864 20.48-30.208 30.208-19.968 37.888-7.167999999999999zM780.1173333333334 784.826q19.456 0 37.376 7.167999999999999t30.719999999999995 19.968 20.48 30.208 7.679999999999999 36.864-7.679999999999999 36.864-20.48 30.208-30.719999999999995 20.48-37.376 7.679999999999999-36.864-7.679999999999999-30.208-20.48-20.48-30.208-7.679999999999999-36.864 7.679999999999999-36.864 20.48-30.208 30.208-19.968 36.864-7.167999999999999zM952.1493333333332 203.19400000000002q28.671999999999997 0 44.544 7.679999999999999t22.528 18.944 6.144 24.064-3.5839999999999996 22.016-13.311999999999998 37.888-22.016 62.97599999999999-23.552 68.096-18.944 53.24799999999999q-13.311999999999998 40.96-33.28 56.832t-49.664 15.871999999999998l-35.84 0-65.536 0-86.016 0-96.256 0-253.95199999999997 0 14.335999999999999 92.16 517.12 0q49.152 0 49.152 41.984 0 20.48-9.728 35.84t-38.4 14.335999999999999l-49.152 0-94.208 0-118.78399999999999 0-119.80800000000002 0-99.328 0-55.29599999999999 0q-20.48 0-34.304-9.216t-23.04-24.064-14.847999999999999-32.256-8.704-32.768q-1.024-6.144-5.632-29.695999999999998t-11.264-58.88-14.847999999999999-78.848-16.384-87.552q-19.456-103.42399999999999-44.032-230.39999999999998l-76.8 0q-15.359999999999998 0-25.6-7.679999999999999t-16.896-18.432-9.216-23.04-2.56-22.528q0-20.48 13.823999999999998-33.792t37.376-12.288l103.42399999999999 0q20.48 0 32.768 6.144t19.456 15.359999999999998 10.24 18.944 5.12 16.896q2.048 8.192 4.096 23.04t4.096 30.208q3.072 18.432 6.144 38.912l700.416 0zM914.2613333333335 294.33000000000004l-641.024-2.048 35.84 185.344 535.552 1.024z" p-id="40735"></path></svg>