<?xml version="1.0" standalone="no"?><!DOCTYPE svg PUBLIC "-//W3C//DTD SVG 1.1//EN" "http://www.w3.org/Graphics/SVG/1.1/DTD/svg11.dtd"><svg t="1549896548272" class="icon" style="" viewBox="0 0 1024 1024" version="1.1" xmlns="http://www.w3.org/2000/svg" p-id="41215" xmlns:xlink="http://www.w3.org/1999/xlink" width="45" height="45"><defs><style type="text/css"></style></defs><path d="M367.1 750.5q17.1 0 32.4 6.3t27 17.55 18 26.55 6.3 32.4-6.3 32.4-18 26.55-27 18-32.4 6.75q-18 0-32.85-6.75t-26.55-18-18-26.55-6.3-32.4 6.3-32.4 18-26.55 26.55-17.55 32.85-6.3zM741.5 752.3q17.1 0 32.85 6.3t27 17.55 18 26.55 6.75 32.4-6.75 32.4-18 26.55-27 18-32.85 6.75-32.4-6.75-26.55-18-18-26.55-6.75-32.4 6.75-32.4 18-26.55 26.55-17.55 32.4-6.3zM892.7 241.1q25.2 0 39.15 6.75t19.8 16.65 5.4 21.15-3.15 19.35-11.25 33.3-19.35 55.35-21.15 59.85-15.75 46.8q-11.7 36-29.7 49.95t-44.1 13.95l-30.6 0-58.5 0-76.5 0-83.7 0-223.2 0 13.5 81 453.6 0q43.2 0 43.2 36.9 0 18-8.55 31.05t-33.75 13.05l-43.2 0-83.7 0-103.5 0-105.3 0-86.4 0-49.5 0q-18 0-30.15-8.1t-20.25-21.15-13.05-28.35-7.65-28.8q-0.9-5.4-4.95-26.1t-9.9-51.75-13.05-69.3-14.4-76.95q-17.1-90.9-38.7-202.5l-67.5 0q-13.5 0-22.5-6.75t-14.85-16.2-8.1-20.25-2.25-19.8q0-18 12.15-29.7t32.85-11.7l19.8 0 18 0 22.5 0 30.6 0q18 0 28.8 5.4t17.1 13.5 9 17.1 4.5 15.3q1.8 7.2 3.6 20.25t3.6 26.55q2.7 16.2 5.4 34.2l615.6 0z" p-id="41216"></path></svg>