<?xml version="1.0" standalone="no"?><!DOCTYPE svg PUBLIC "-//W3C//DTD SVG 1.1//EN" "http://www.w3.org/Graphics/SVG/1.1/DTD/svg11.dtd"><svg t="1549896355690" class="icon" style="" viewBox="0 0 1024 1024" version="1.1" xmlns="http://www.w3.org/2000/svg" p-id="38752" xmlns:xlink="http://www.w3.org/1999/xlink" width="45" height="45"><defs><style type="text/css"></style></defs><path d="M844.8 567.466667c-17.066667 0-32 14.933333-32 32v226.133333c0 38.4-27.733333 72.533333-57.6 72.533333H270.933333c-32 0-57.6-32-57.6-72.533333V599.466667c0-17.066667-14.933333-32-32-32S149.333333 582.4 149.333333 599.466667v226.133333c0 74.666667 53.333333 134.4 121.6 134.4h484.266667c66.133333 0 121.6-59.733333 121.6-134.4V599.466667c0-17.066667-14.933333-32-32-32zM949.333333 283.733333l-2.133333-4.266666c-2.133333-2.133333-2.133333-6.4-4.266667-8.533334L874.666667 140.8C853.333333 91.733333 810.666667 64 761.6 64H266.666667C211.2 64 179.2 85.333333 153.6 138.666667c-4.266667 6.4-6.4 12.8-10.666667 19.2-8.533333 14.933333-17.066667 32-27.733333 49.066666-38.4 70.4-40.533333 74.666667-40.533333 76.8-10.666667 27.733333-10.666667 42.666667-10.666667 61.866667 0 72.533333 38.4 138.666667 102.4 172.8h2.133333c27.733333 14.933333 57.6 21.333333 91.733334 21.333333 46.933333 0 91.733333-17.066667 125.866666-46.933333 34.133333 29.866667 78.933333 44.8 125.866667 44.8s89.6-17.066667 123.733333-46.933333c34.133333 29.866667 78.933333 44.8 125.866667 44.8 36.266667 0 66.133333-8.533333 93.866667-23.466667 64-34.133333 102.4-100.266667 102.4-172.8 2.133333-12.8 2.133333-27.733333-8.533334-55.466667z m-177.066666 53.333334H251.733333c-17.066667 0-32-14.933333-32-32s14.933333-32 32-32h520.533334c17.066667 0 32 14.933333 32 32s-14.933333 32-32 32z" p-id="38753"></path><path d="M390.4 586.666667c-17.066667 0-32 14.933333-32 32v29.866666c0 17.066667 14.933333 32 32 32s32-14.933333 32-32V618.666667c0-17.066667-14.933333-32-32-32zM633.6 586.666667c-17.066667 0-32 14.933333-32 32v29.866666c0 17.066667 14.933333 32 32 32s32-14.933333 32-32V618.666667c0-17.066667-14.933333-32-32-32zM588.8 727.466667c-14.933333-8.533333-34.133333-6.4-42.666667 8.533333 0 0-12.8 19.2-34.133333 19.2-19.2 0-32-17.066667-34.133333-19.2-8.533333-14.933333-27.733333-19.2-42.666667-10.666667s-19.2 27.733333-10.666667 42.666667c10.666667 17.066667 42.666667 49.066667 85.333334 49.066667 44.8 0 74.666667-29.866667 87.466666-49.066667 10.666667-10.666667 6.4-29.866667-8.533333-40.533333z" p-id="38754"></path></svg>