<?xml version="1.0" standalone="no"?><!DOCTYPE svg PUBLIC "-//W3C//DTD SVG 1.1//EN" "http://www.w3.org/Graphics/SVG/1.1/DTD/svg11.dtd"><svg t="1549896903337" class="icon" style="" viewBox="0 0 1024 1024" version="1.1" xmlns="http://www.w3.org/2000/svg" p-id="96783" xmlns:xlink="http://www.w3.org/1999/xlink" width="45" height="45"><defs><style type="text/css"></style></defs><path d="M518.25664 993.28h-0.4096c-49.03936 0-99.67616-6.47168-150.528-19.22048-52.61312-13.19936-92.57984-29.9008-116.84864-41.60512-58.7776-28.2112-111.47264-67.82976-152.35072-114.55488-41.41056-47.31904-71.24992-102.56384-86.30272-159.744a353.46432 353.46432 0 0 1-5.9904-154.5216c9.6256-52.8384 31.1296-104.20224 63.88736-152.73984l1.3312-5.07904c39.3216-150.08768 79.98464-305.27488 182.67136-324.1472l1.20832-0.21504 1.2288-0.12288A182.55872 182.55872 0 0 1 273.69472 20.48c99.7376 0 169.97376 81.6128 194.48832 114.93376h81.408l2.048-2.4576c27.66848-33.44384 92.4672-111.75936 183.296-111.75936h1.47456c107.37664 0 171.61216 185.3952 210.5856 324.84352 1.3312 4.78208 2.70336 9.6768 3.62496 12.82048 64.12288 94.60736 86.3744 189.41952 66.12992 281.87648-35.1232 160.44032-185.92768 255.08864-200.83712 264.09984C803.4304 913.37728 689.152 988.3136 518.67648 993.28l-0.41984 0.01024zM263.02464 79.4112c-65.6896 13.6704-104.5504 161.9968-135.81312 281.31328l-3.93216 14.99136-2.93888 4.23936C62.69952 463.36 44.58496 554.37312 67.96288 643.18464c12.75904 48.46592 38.25664 95.51872 73.74848 136.07936 35.7376 40.84736 82.01216 75.58144 133.79584 100.44416 26.8288 12.92288 123.35104 55.00928 241.90976 55.11168 158.5664-4.73088 265.18528-77.86496 266.25024-78.60224l0.90112-0.62464 0.99328-0.59392c1.40288-0.82944 144.0768-87.04 174.55104-227.19488 16.7424-76.99456-3.34848-157.4912-59.6992-239.26784l-2.10944-3.05152-1.28-3.4816c-1.26976-3.4816-2.74432-8.69376-5.9392-20.13184-9.8304-35.15392-30.26944-108.31872-60.29312-173.39392-31.90784-69.16096-66.304-108.82048-94.37184-108.82048h-1.4848c-63.60064 0-116.20352 63.56992-138.6496 90.71616-10.26048 12.3904-14.9504 18.05312-23.59296 21.48352l-5.12 2.02752H436.91008l-8.52992-13.74208c-0.60416-0.96256-64.47104-101.19168-154.68544-101.19168-3.54304 0-7.12704 0.1536-10.68032 0.4608z" p-id="96784"></path></svg>