<?xml version="1.0" standalone="no"?><!DOCTYPE svg PUBLIC "-//W3C//DTD SVG 1.1//EN" "http://www.w3.org/Graphics/SVG/1.1/DTD/svg11.dtd"><svg t="1549092044714" class="icon" style="" viewBox="0 0 1024 1024" version="1.1" xmlns="http://www.w3.org/2000/svg" p-id="19195" xmlns:xlink="http://www.w3.org/1999/xlink" width="45" height="45"><defs><style type="text/css"></style></defs><path d="M511.36 0.384c-143.04 0-251.008 113.792-251.008 264.704v93.056h-8.128c-75.2 0-136.32 62.784-136.32 139.968v357.76c0 77.184 61.12 140.032 136.32 140.032h520.32c75.2 0 136.448-62.848 136.448-139.968v-357.76c0-77.248-61.248-140.032-136.448-140.032h-4.48c-1.152-0.448-2.368-0.576-3.648-0.768V265.088c0-150.912-108.8-264.704-253.056-264.704z m196.032 259.84V358.4H317.44V260.288c0-119.808 81.6-206.72 193.984-206.72 113.536 0 195.968 86.912 195.968 206.72zM507.84 553.856c33.28 0 60.16 27.776 60.16 62.08 0 22.976-12.096 43.008-30.08 53.76v101.376c0 17.152-13.44 31.104-30.08 31.104a30.592 30.592 0 0 1-30.08-31.104v-101.376a62.528 62.528 0 0 1-30.08-53.76c0-34.304 26.88-62.08 60.16-62.08z" p-id="19196"></path></svg>