<?xml version="1.0" standalone="no"?><!DOCTYPE svg PUBLIC "-//W3C//DTD SVG 1.1//EN" "http://www.w3.org/Graphics/SVG/1.1/DTD/svg11.dtd"><svg t="1549714234115" class="icon" style="" viewBox="0 0 1024 1024" version="1.1" xmlns="http://www.w3.org/2000/svg" p-id="38454" xmlns:xlink="http://www.w3.org/1999/xlink" width="45" height="45"><defs><style type="text/css"></style></defs><path d="M759.4496 0h-512a102.4 102.4 0 0 0-102.4 102.4v819.2a102.4 102.4 0 0 0 102.4 102.4h512a102.4 102.4 0 0 0 102.4-102.4V102.4a102.4 102.4 0 0 0-102.4-102.4zM435.2 38.4h136.5504a21.3504 21.3504 0 0 1 0 42.7008H435.2a21.3504 21.3504 0 0 1 0-42.7008z m68.2496 904.5504a59.6992 59.6992 0 1 1-0.0512-119.4496 59.6992 59.6992 0 0 1 0.0512 119.4496z m256-168.5504h-512V130.1504h512v644.2496z" fill="#212121" p-id="38455"></path></svg>