<?xml version="1.0" standalone="no"?><!DOCTYPE svg PUBLIC "-//W3C//DTD SVG 1.1//EN" "http://www.w3.org/Graphics/SVG/1.1/DTD/svg11.dtd"><svg t="1549091911704" class="icon" style="" viewBox="0 0 1077 1024" version="1.1" xmlns="http://www.w3.org/2000/svg" p-id="12312" xmlns:xlink="http://www.w3.org/1999/xlink" width="47.3291015625" height="45"><defs><style type="text/css"></style></defs><path d="M492.766585 15.467789c-37.510737 0-31.744 15.629474-51.954526 18.324211-20.156632 2.694737 4.096-7.545263-56.481684 3.233684s-82.027789 83.536842-84.884211 110.484211c-2.910316 26.947368-3.610947 102.669474-1.670737 143.090526 5.766737 24.252632-14.443789 24.252632-14.443789 24.252632-36.325053-2.155789-19.941053 103.477895-19.941053 103.477894 5.173895 26.031158-1.940211 39.019789 51.846737 59.176421 25.6 68.122947 92.537263 104.124632 92.537263 104.124632s0.323368 42.037895 1.347369 73.189053c-5.497263-2.533053 18.647579 79.494737-148.372211 102.561684-167.019789 22.959158-198.979368 73.512421-230.453895 101.591579C-1.232573 887.107368 0.007006 1023.461053 0.007006 1023.461053L1077.901743 1024s-8.030316-136.892632-39.504842-165.025684c-31.474526-28.079158-65.751579-78.632421-232.825263-101.591579-162.330947-21.989053-135.653053-102.885053-136.784842-107.735579 0.269474-12.234105 2.048-64.242526 2.048-64.242526s56.697263-41.768421 82.297263-109.945264c40.313263-23.713684 55.673263-27.055158 62.35621-54.433684 0 0 11.856842-106.711579-26.246736-106.172631 0 0-18.000842 5.389474-12.234106-18.863158 5.766737-24.252632 3.826526-99.974737 0.970106-126.922106-2.910316-26.947368 1.455158-104.016842-59.122527-114.795789-41.391158-7.168-46.780632 0-66.991158-2.694737C631.653322 48.828632 607.670164 0 570.105533 0L492.766585 15.467789z" p-id="12313"></path></svg>